<svg xmlns="http://www.w3.org/2000/svg" viewBox="0 0 1280 1280" width="1280" height="1280">

      <defs>
        
        <radialGradient id="bg-grad" cx="50%" cy="55%" r="72%">
          <stop offset="0%" stop-color="#3a1c64"></stop>
          <stop offset="55%" stop-color="#1c0b3a"></stop>
          <stop offset="100%" stop-color="#0b0420"></stop>
        </radialGradient>
        
        <linearGradient id="body-grad" x1="0" y1="0" x2="0" y2="1">
          <stop offset="0%" stop-color="#f6cdc4"></stop>
          <stop offset="40%" stop-color="#e09a96"></stop>
          <stop offset="100%" stop-color="#bf7470"></stop>
        </linearGradient>
        <linearGradient id="body-side" x1="0" y1="0" x2="1" y2="0">
          <stop offset="0%" stop-color="#a85a58" stop-opacity=".55"></stop>
          <stop offset="10%" stop-color="#a85a58" stop-opacity="0"></stop>
          <stop offset="90%" stop-color="#a85a58" stop-opacity="0"></stop>
          <stop offset="100%" stop-color="#a85a58" stop-opacity=".55"></stop>
        </linearGradient>
        
        <linearGradient id="body-sheen" x1="0" y1="0" x2="1" y2="0">
          <stop offset="0%" stop-color="#ffffff" stop-opacity="0"></stop>
          <stop offset="22%" stop-color="#ffffff" stop-opacity=".08"></stop>
          <stop offset="45%" stop-color="#ffffff" stop-opacity="0"></stop>
          <stop offset="100%" stop-color="#000000" stop-opacity=".06"></stop>
        </linearGradient>
        
        <radialGradient id="btn-grad" cx="35%" cy="30%" r="80%">
          <stop offset="0%" stop-color="#e8a39c"></stop>
          <stop offset="55%" stop-color="#cf7d78"></stop>
          <stop offset="100%" stop-color="#a85a58"></stop>
        </radialGradient>
        <radialGradient id="dpad-grad" cx="40%" cy="30%" r="90%">
          <stop offset="0%" stop-color="#e09a96"></stop>
          <stop offset="60%" stop-color="#bd6f6c"></stop>
          <stop offset="100%" stop-color="#7a3a38"></stop>
        </radialGradient>
        <linearGradient id="pill-grad" x1="0" y1="0" x2="0" y2="1">
          <stop offset="0%" stop-color="#dadcd2"></stop>
          <stop offset="100%" stop-color="#9ea59a"></stop>
        </linearGradient>
      </defs>

      

      
      
      
      <g>

        
        
        <path d="M 325 190 H 955 V 1036 Q 955 1080 911 1080 H 369 Q 325 1080 325 1036 Z" fill="#000" opacity=".4"></path>

        
        <path d="M 320 180 H 950 V 1036 Q 950 1080 906 1080 H 364 Q 320 1080 320 1036 Z" fill="url(#body-grad)"></path>
        
        <path d="M 320 180 H 950 V 1036 Q 950 1080 906 1080 H 364 Q 320 1080 320 1036 Z" fill="url(#body-side)"></path>
        
        <path d="M 320 180 H 950 V 1036 Q 950 1080 906 1080 H 364 Q 320 1080 320 1036 Z" fill="url(#body-sheen)"></path>
        

        
        
        <rect x="334" y="194" width="602" height="426" rx="6" fill="#050507"></rect>
        <rect x="334" y="194" width="602" height="426" rx="6" fill="none" stroke="#7a3a38" stroke-width="3"></rect>

        
        
        <path d="M 342 202 L 928 202 L 928 222 L 342 240 Z" fill="#ffffff" opacity=".05"></path>
        
        <text x="334" y="662" font-family="Nunito, system-ui, sans-serif" font-weight="900" font-size="15" letter-spacing="2" textLength="146" lengthAdjust="spacingAndGlyphs" fill="#a85a58">BRICK HAMMER</text>

        
        <g>
          <rect x="555" y="700" width="68" height="22" rx="11" fill="url(#pill-grad)"></rect>
          <rect x="555" y="700" width="68" height="22" rx="11" fill="none" stroke="#7a8076" stroke-width="1.5"></rect>
          <rect x="650" y="700" width="68" height="22" rx="11" fill="url(#pill-grad)"></rect>
          <rect x="650" y="700" width="68" height="22" rx="11" fill="none" stroke="#7a8076" stroke-width="1.5"></rect>
        </g>

        
        <g transform="translate(450 788)">
          
          <g transform="translate(2 3)" opacity=".45">
            <path d="M -28 -88 H 28 V -28 H 88 V 28 H 28 V 88 H -28 V 28 H -88 V -28 H -28 Z" fill="#000"></path>
          </g>
          
          <path d="M -28 -88 H 28 V -28 H 88 V 28 H 28 V 88 H -28 V 28 H -88 V -28 H -28 Z" fill="url(#dpad-grad)" stroke="#7a3a38" stroke-width="3" stroke-linejoin="round"></path>
          
          <circle r="20" fill="#a85a58"></circle>
          <circle r="20" fill="none" stroke="#7a3a38" stroke-width="2"></circle>
          
          <g fill="#7a3a38" opacity=".75">
            <circle cx="0" cy="-7" r="3.5"></circle>
            <circle cx="-6" cy="4" r="3.5"></circle>
            <circle cx="6" cy="4" r="3.5"></circle>
          </g>
        </g>

        
        <g transform="translate(820 797)">
          
          <g transform="translate(0 -70)">
            <circle r="32" fill="url(#btn-grad)" stroke="#7a3a38" stroke-width="2"></circle>
            <text y="10" text-anchor="middle" font-family="Nunito, system-ui, sans-serif" font-weight="900" font-size="32" fill="#7a3a38">X</text>
          </g>
          
          <g transform="translate(70 0)">
            <circle r="32" fill="url(#btn-grad)" stroke="#7a3a38" stroke-width="2"></circle>
            <text y="10" text-anchor="middle" font-family="Nunito, system-ui, sans-serif" font-weight="900" font-size="32" fill="#7a3a38">A</text>
          </g>
          
          <g transform="translate(0 70)">
            <circle r="32" fill="url(#btn-grad)" stroke="#7a3a38" stroke-width="2"></circle>
            <text y="10" text-anchor="middle" font-family="Nunito, system-ui, sans-serif" font-weight="900" font-size="32" fill="#7a3a38">B</text>
          </g>
          
          <g transform="translate(-70 0)">
            <circle r="32" fill="url(#btn-grad)" stroke="#7a3a38" stroke-width="2"></circle>
            <text y="10" text-anchor="middle" font-family="Nunito, system-ui, sans-serif" font-weight="900" font-size="32" fill="#7a3a38">Y</text>
          </g>
        </g>

        
        
        <g fill="#7a3a38">
          
          <circle cx="370" cy="1015" r="3"></circle>
          <circle cx="385" cy="1015" r="3"></circle>
          <circle cx="400" cy="1015" r="3"></circle>
          <circle cx="415" cy="1015" r="3"></circle>
          <circle cx="430" cy="1015" r="3"></circle>
          <circle cx="445" cy="1015" r="3"></circle>
          
          <circle cx="377.5" cy="998" r="3"></circle>
          <circle cx="392.5" cy="998" r="3"></circle>
          <circle cx="407.5" cy="998" r="3"></circle>
          <circle cx="422.5" cy="998" r="3"></circle>
          <circle cx="437.5" cy="998" r="3"></circle>
          <circle cx="452.5" cy="998" r="3"></circle>
        </g>
        
        <g fill="#7a3a38">
          
          <circle cx="825" cy="1015" r="3"></circle>
          <circle cx="840" cy="1015" r="3"></circle>
          <circle cx="855" cy="1015" r="3"></circle>
          <circle cx="870" cy="1015" r="3"></circle>
          <circle cx="885" cy="1015" r="3"></circle>
          <circle cx="900" cy="1015" r="3"></circle>
          
          <circle cx="817.5" cy="998" r="3"></circle>
          <circle cx="832.5" cy="998" r="3"></circle>
          <circle cx="847.5" cy="998" r="3"></circle>
          <circle cx="862.5" cy="998" r="3"></circle>
          <circle cx="877.5" cy="998" r="3"></circle>
          <circle cx="892.5" cy="998" r="3"></circle>
        </g>

        
        <g>
          
          <circle cx="555" cy="1010" r="22" fill="url(#btn-grad)" stroke="#7a3a38" stroke-width="2"></circle>
          <g fill="#7a3a38" transform="translate(555 1010)">
            <circle cx="0" cy="-6" r="4"></circle>
            <circle cx="-6" cy="4" r="4"></circle>
            <circle cx="6" cy="4" r="4"></circle>
          </g>
          
          <circle cx="635" cy="1010" r="22" fill="url(#btn-grad)" stroke="#7a3a38" stroke-width="2"></circle>
          <rect x="624" y="1003" width="22" height="14" rx="2" fill="#7a3a38"></rect>
          
          <circle cx="715" cy="1010" r="22" fill="url(#btn-grad)" stroke="#7a3a38" stroke-width="2"></circle>
          <path d="M 708 1000 L 724 1010 L 708 1020 Z" fill="#7a3a38"></path>
        </g>

      </g>

    </svg>