<svg xmlns="http://www.w3.org/2000/svg" viewBox="0 0 2200 960" width="2200" height="960" preserveAspectRatio="xMidYMid meet">
<defs>
  <linearGradient id="body-grad" x1="0" y1="0" x2="0" y2="1">
    <stop offset="0%" stop-color="#ffffff"></stop>
    <stop offset="50%" stop-color="#f0f0f3"></stop>
    <stop offset="100%" stop-color="#d4d4d8"></stop>
  </linearGradient>
  <linearGradient id="body-side" x1="0" y1="0" x2="1" y2="0">
    <stop offset="0%" stop-color="#b0b0b4" stop-opacity=".55"></stop>
    <stop offset="8%" stop-color="#b0b0b4" stop-opacity="0"></stop>
    <stop offset="92%" stop-color="#b0b0b4" stop-opacity="0"></stop>
    <stop offset="100%" stop-color="#b0b0b4" stop-opacity=".55"></stop>
  </linearGradient>
  <radialGradient id="abxy-face" cx="40%" cy="30%" r="80%">
    <stop offset="0%" stop-color="#c8c8cc"></stop>
    <stop offset="60%" stop-color="#9e9ea3"></stop>
    <stop offset="100%" stop-color="#7a7a7e"></stop>
  </radialGradient>
  <radialGradient id="aux-face" cx="40%" cy="30%" r="80%">
    <stop offset="0%" stop-color="#c8c8cc"></stop>
    <stop offset="60%" stop-color="#9e9ea3"></stop>
    <stop offset="100%" stop-color="#7a7a7e"></stop>
  </radialGradient>
  <radialGradient id="stick-ring" cx="40%" cy="35%" r="85%">
    <stop offset="0%" stop-color="#cfcfd3"></stop>
    <stop offset="100%" stop-color="#9e9ea3"></stop>
  </radialGradient>
  <radialGradient id="stick-puck" cx="40%" cy="35%" r="90%">
    <stop offset="0%" stop-color="#ffffff"></stop>
    <stop offset="55%" stop-color="#e8e8ec"></stop>
    <stop offset="100%" stop-color="#b8b8bc"></stop>
  </radialGradient>
</defs>


<path d="M 355 85 L 1845 85 A 270 420 0 0 1 1845 925 L 355 925 A 270 420 0 0 1 355 85 Z" fill="#000" opacity=".28"></path>
<path d="M 350 80 L 1850 80 A 270 420 0 0 1 1850 920 L 350 920 A 270 420 0 0 1 350 80 Z" fill="url(#body-grad)"></path>
<path d="M 350 80 L 1850 80 A 270 420 0 0 1 1850 920 L 350 920 A 270 420 0 0 1 350 80 Z" fill="url(#body-side)"></path>


<rect x="460" y="105" width="1280" height="760" fill="#050507"></rect>
<rect x="460" y="105" width="1280" height="760" fill="none" stroke="#a8a8ac" stroke-width="3"></rect>
<path d="M 460 105 L 1740 105 L 1740 122 L 460 138 Z" fill="#ffffff" opacity=".04"></path>


<g transform="translate(270 350)">
  <g transform="translate(2 3)" opacity=".4">
    <path d="M -34 -100 H 34 V -34 H 100 V 34 H 34 V 100 H -34 V 34 H -100 V -34 H -34 Z" fill="#000"></path>
  </g>
  <path d="M -34 -100 H 34 V -34 H 100 V 34 H 34 V 100 H -34 V 34 H -100 V -34 H -34 Z" fill="#9c9ca0" stroke="#6a6a6e" stroke-width="3" stroke-linejoin="round"></path>
  
  <circle r="30" fill="#b6b6ba"></circle>
  <circle r="30" fill="none" stroke="#7a7a7e" stroke-width="1.5" opacity=".5"></circle>
  
  <g fill="#4a4a4e">
    <circle cx="0" cy="-12" r="5.5"></circle>
    <circle cx="-11" cy="8" r="5.5"></circle>
    <circle cx="11" cy="8" r="5.5"></circle>
  </g>
</g>


<g transform="translate(290 650)">
  <circle r="118" fill="#c8c8cc"></circle>
  <circle r="95" fill="url(#stick-ring)"></circle>
  <circle r="76" fill="url(#stick-puck)"></circle>
  <circle cx="-18" cy="-22" r="18" fill="#ffffff" opacity=".08"></circle>
</g>


<g transform="translate(1920 340)">
  <g transform="translate(0 -84)">
    <circle r="40" fill="url(#abxy-face)" stroke="#5a5a5e" stroke-width="2"></circle>
    <text y="13" text-anchor="middle" font-family="Nunito, system-ui, sans-serif" font-weight="900" font-size="32" fill="#3a3a3e">X</text>
  </g>
  <g transform="translate(84 0)">
    <circle r="40" fill="url(#abxy-face)" stroke="#5a5a5e" stroke-width="2"></circle>
    <text y="13" text-anchor="middle" font-family="Nunito, system-ui, sans-serif" font-weight="900" font-size="32" fill="#3a3a3e">A</text>
  </g>
  <g transform="translate(0 84)">
    <circle r="40" fill="url(#abxy-face)" stroke="#5a5a5e" stroke-width="2"></circle>
    <text y="13" text-anchor="middle" font-family="Nunito, system-ui, sans-serif" font-weight="900" font-size="32" fill="#3a3a3e">B</text>
  </g>
  <g transform="translate(-84 0)">
    <circle r="40" fill="url(#abxy-face)" stroke="#5a5a5e" stroke-width="2"></circle>
    <text y="13" text-anchor="middle" font-family="Nunito, system-ui, sans-serif" font-weight="900" font-size="32" fill="#3a3a3e">Y</text>
  </g>
</g>


<g transform="translate(1910 650)">
  <circle r="118" fill="#c8c8cc"></circle>
  <circle r="95" fill="url(#stick-ring)"></circle>
  <circle r="76" fill="url(#stick-puck)"></circle>
  <circle cx="-18" cy="-22" r="18" fill="#ffffff" opacity=".08"></circle>
</g>


<g fill="#9e9ea3">
  <circle cx="475" cy="878" r="3.5"></circle>
  <circle cx="493" cy="878" r="3.5"></circle>
  <circle cx="511" cy="878" r="3.5"></circle>
  <circle cx="529" cy="878" r="3.5"></circle>
  <circle cx="547" cy="878" r="3.5"></circle>
  <circle cx="565" cy="878" r="3.5"></circle>
  <circle cx="484" cy="896" r="3.5"></circle>
  <circle cx="502" cy="896" r="3.5"></circle>
  <circle cx="520" cy="896" r="3.5"></circle>
  <circle cx="538" cy="896" r="3.5"></circle>
  <circle cx="556" cy="896" r="3.5"></circle>
  <circle cx="574" cy="896" r="3.5"></circle>
</g>


<g fill="#9e9ea3">
  <circle cx="1635" cy="878" r="3.5"></circle>
  <circle cx="1653" cy="878" r="3.5"></circle>
  <circle cx="1671" cy="878" r="3.5"></circle>
  <circle cx="1689" cy="878" r="3.5"></circle>
  <circle cx="1707" cy="878" r="3.5"></circle>
  <circle cx="1725" cy="878" r="3.5"></circle>
  <circle cx="1626" cy="896" r="3.5"></circle>
  <circle cx="1644" cy="896" r="3.5"></circle>
  <circle cx="1662" cy="896" r="3.5"></circle>
  <circle cx="1680" cy="896" r="3.5"></circle>
  <circle cx="1698" cy="896" r="3.5"></circle>
  <circle cx="1716" cy="896" r="3.5"></circle>
</g>


<g transform="translate(384 825)">
  <circle r="24" fill="url(#aux-face)" stroke="#5a5a5e" stroke-width="2"></circle>
  <g fill="#3a3a3e">
    <circle cx="0" cy="-9" r="4.4"></circle>
    <circle cx="-8" cy="5" r="4.4"></circle>
    <circle cx="8" cy="5" r="4.4"></circle>
  </g>
</g>
<text x="384" y="882" text-anchor="middle" font-family="Nunito, system-ui, sans-serif" font-weight="900" font-style="italic" font-size="15" letter-spacing="1.8" fill="#9e9ea3">MENU</text>


<g transform="translate(1830 825)">
  <circle r="24" fill="url(#aux-face)" stroke="#5a5a5e" stroke-width="2"></circle>
  <rect x="-9" y="-6" width="18" height="12" rx="2.5" fill="#3a3a3e"></rect>
</g>
<text x="1830" y="882" text-anchor="middle" font-family="Nunito, system-ui, sans-serif" font-weight="900" font-style="italic" font-size="15" letter-spacing="1.8" fill="#9e9ea3">SELECT</text>


<g transform="translate(1910 825)">
  <circle r="24" fill="url(#aux-face)" stroke="#5a5a5e" stroke-width="2"></circle>
  <path d="M -6 -9 L 9 0 L -6 9 Z" fill="#3a3a3e"></path>
</g>
<text x="1910" y="882" text-anchor="middle" font-family="Nunito, system-ui, sans-serif" font-weight="900" font-style="italic" font-size="15" letter-spacing="1.8" fill="#9e9ea3">START</text>


<g transform="translate(1100 893)" fill="#9e9ea3">
  <polygon points="0,-22 11,-16 11,-4 0,2 -11,-4 -11,-16"></polygon>
  <polygon points="-13,-3 -2,3 -2,15 -13,21 -24,15 -24,3"></polygon>
  <polygon points="13,-3 24,3 24,15 13,21 2,15 2,3"></polygon>
</g>


<g transform="translate(1320 893)">
  <g fill="#9e9ea3">
    <circle cx="0" cy="-6" r="2.4"></circle>
    <circle cx="-4.5" cy="3" r="2.4"></circle>
    <circle cx="4.5" cy="3" r="2.4"></circle>
  </g>
  <text x="12" y="5" font-family="Nunito, system-ui, sans-serif" font-weight="900" font-size="18" letter-spacing="1.2" fill="#9e9ea3">TRIMUI</text>
  <text x="92" y="5" font-family="Nunito, system-ui, sans-serif" font-weight="400" font-style="italic" font-size="18" letter-spacing="0.8" fill="#5a5a5e">SMART</text>
  <text x="170" y="5" font-family="Nunito, system-ui, sans-serif" font-weight="400" font-style="italic" font-size="18" letter-spacing="0.8" fill="#5a5a5e">PRO</text>
  <text x="222" y="5" font-family="Nunito, system-ui, sans-serif" font-weight="900" font-size="18" letter-spacing="0" fill="#9e9ea3">S</text>
  <g transform="translate(248 -12)">
    <g transform="skewX(-18)">
      <rect x="0" y="0" width="7" height="20" rx="1.5" fill="#a8a8ac"></rect>
      <rect x="11" y="0" width="7" height="20" rx="1.5" fill="#7ad072"></rect>
      <rect x="22" y="0" width="7" height="20" rx="1.5" fill="#2a8a2a"></rect>
    </g>
  </g>
  
</g>

</svg>