<svg xmlns="http://www.w3.org/2000/svg" viewBox="0 0 1280 640" width="1280" height="640">
  <defs>
    <linearGradient id="body-grad" x1="0" y1="0" x2="0" y2="1">
      <stop offset="0%" stop-color="#6ed666"/>
      <stop offset="40%" stop-color="#4cc347"/>
      <stop offset="100%" stop-color="#2f9a2c"/>
    </linearGradient>
    <linearGradient id="body-side" x1="0" y1="0" x2="1" y2="0">
      <stop offset="0%" stop-color="#2a8a28" stop-opacity=".55"/>
      <stop offset="10%" stop-color="#2a8a28" stop-opacity="0"/>
      <stop offset="90%" stop-color="#2a8a28" stop-opacity="0"/>
      <stop offset="100%" stop-color="#2a8a28" stop-opacity=".55"/>
    </linearGradient>
    <linearGradient id="body-sheen" x1="0" y1="0" x2="1" y2="0">
      <stop offset="0%" stop-color="#ffffff" stop-opacity="0"/>
      <stop offset="22%" stop-color="#ffffff" stop-opacity=".08"/>
      <stop offset="45%" stop-color="#ffffff" stop-opacity="0"/>
      <stop offset="100%" stop-color="#000000" stop-opacity=".06"/>
    </linearGradient>
    <radialGradient id="btn-grad" cx="35%" cy="30%" r="80%">
      <stop offset="0%" stop-color="#6cd067"/>
      <stop offset="55%" stop-color="#3aa336"/>
      <stop offset="100%" stop-color="#1f6b22"/>
    </radialGradient>
    <radialGradient id="dpad-grad" cx="40%" cy="30%" r="90%">
      <stop offset="0%" stop-color="#5ec858"/>
      <stop offset="60%" stop-color="#33982e"/>
      <stop offset="100%" stop-color="#1c5e1f"/>
    </radialGradient>
    <linearGradient id="pill-grad" x1="0" y1="0" x2="0" y2="1">
      <stop offset="0%" stop-color="#dadcd2"/>
      <stop offset="100%" stop-color="#9ea59a"/>
    </linearGradient>
  </defs>

  <!-- Background -->
  <rect width="1280" height="640" fill="#2b2d3a"/>

  <!-- Title -->
  <text x="280" y="220" text-anchor="middle" font-family="Helvetica Neue, Helvetica, Arial, sans-serif" font-size="88" font-weight="300" fill="#e2e8f0" letter-spacing="3">NextUI</text>
  <text x="280" y="320" text-anchor="middle" font-family="Helvetica Neue, Helvetica, Arial, sans-serif" font-size="88" font-weight="300" fill="#e2e8f0" letter-spacing="3">Assets</text>
  <text x="280" y="400" text-anchor="middle" font-family="Helvetica Neue, Helvetica, Arial, sans-serif" font-size="28" font-weight="300" fill="#94a3b8" letter-spacing="1">Device SVGs for TrimUI handhelds</text>

  <!-- Device - scaled and positioned right -->
  <g transform="translate(820, 320) scale(0.48)">
    <g transform="translate(-635, -630)">
      <path d="M 325 190 H 955 V 1036 Q 955 1080 911 1080 H 369 Q 325 1080 325 1036 Z" fill="#000" opacity=".4"/>
      <path d="M 320 180 H 950 V 1036 Q 950 1080 906 1080 H 364 Q 320 1080 320 1036 Z" fill="url(#body-grad)"/>
      <path d="M 320 180 H 950 V 1036 Q 950 1080 906 1080 H 364 Q 320 1080 320 1036 Z" fill="url(#body-side)"/>
      <path d="M 320 180 H 950 V 1036 Q 950 1080 906 1080 H 364 Q 320 1080 320 1036 Z" fill="url(#body-sheen)"/>
      <rect x="334" y="194" width="602" height="426" rx="6" fill="#050507"/>
      <rect x="334" y="194" width="602" height="426" rx="6" fill="none" stroke="#0a3a0c" stroke-width="3"/>
      <path d="M 342 202 L 928 202 L 928 222 L 342 240 Z" fill="#ffffff" opacity=".05"/>
      <text x="334" y="662" font-family="Nunito, system-ui, sans-serif" font-weight="900" font-size="15" letter-spacing="2" textLength="146" lengthAdjust="spacingAndGlyphs" fill="#1f6b22">BRICK HAMMER</text>
      <g>
        <rect x="555" y="700" width="68" height="22" rx="11" fill="url(#pill-grad)"/>
        <rect x="555" y="700" width="68" height="22" rx="11" fill="none" stroke="#7a8076" stroke-width="1.5"/>
        <rect x="650" y="700" width="68" height="22" rx="11" fill="url(#pill-grad)"/>
        <rect x="650" y="700" width="68" height="22" rx="11" fill="none" stroke="#7a8076" stroke-width="1.5"/>
      </g>
      <g transform="translate(450 788)">
        <g transform="translate(2 3)" opacity=".45">
          <path d="M -28 -88 H 28 V -28 H 88 V 28 H 28 V 88 H -28 V 28 H -88 V -28 H -28 Z" fill="#000"/>
        </g>
        <path d="M -28 -88 H 28 V -28 H 88 V 28 H 28 V 88 H -28 V 28 H -88 V -28 H -28 Z" fill="url(#dpad-grad)" stroke="#1c5e1f" stroke-width="3" stroke-linejoin="round"/>
        <circle r="20" fill="#2a8a28"/>
        <circle r="20" fill="none" stroke="#1c5e1f" stroke-width="2"/>
        <g fill="#1c5e1f" opacity=".75">
          <circle cx="0" cy="-7" r="3.5"/>
          <circle cx="-6" cy="4" r="3.5"/>
          <circle cx="6" cy="4" r="3.5"/>
        </g>
      </g>
      <g transform="translate(820 797)">
        <g transform="translate(0 -70)"><circle r="32" fill="url(#btn-grad)" stroke="#1c5e1f" stroke-width="2"/><text y="10" text-anchor="middle" font-family="Nunito, system-ui, sans-serif" font-weight="900" font-size="32" fill="#1c5e1f">X</text></g>
        <g transform="translate(70 0)"><circle r="32" fill="url(#btn-grad)" stroke="#1c5e1f" stroke-width="2"/><text y="10" text-anchor="middle" font-family="Nunito, system-ui, sans-serif" font-weight="900" font-size="32" fill="#1c5e1f">A</text></g>
        <g transform="translate(0 70)"><circle r="32" fill="url(#btn-grad)" stroke="#1c5e1f" stroke-width="2"/><text y="10" text-anchor="middle" font-family="Nunito, system-ui, sans-serif" font-weight="900" font-size="32" fill="#1c5e1f">B</text></g>
        <g transform="translate(-70 0)"><circle r="32" fill="url(#btn-grad)" stroke="#1c5e1f" stroke-width="2"/><text y="10" text-anchor="middle" font-family="Nunito, system-ui, sans-serif" font-weight="900" font-size="32" fill="#1c5e1f">Y</text></g>
      </g>
      <g fill="#1c5e1f">
        <circle cx="370" cy="1015" r="3"/><circle cx="385" cy="1015" r="3"/><circle cx="400" cy="1015" r="3"/><circle cx="415" cy="1015" r="3"/><circle cx="430" cy="1015" r="3"/><circle cx="445" cy="1015" r="3"/>
        <circle cx="377.5" cy="998" r="3"/><circle cx="392.5" cy="998" r="3"/><circle cx="407.5" cy="998" r="3"/><circle cx="422.5" cy="998" r="3"/><circle cx="437.5" cy="998" r="3"/><circle cx="452.5" cy="998" r="3"/>
      </g>
      <g fill="#1c5e1f">
        <circle cx="825" cy="1015" r="3"/><circle cx="840" cy="1015" r="3"/><circle cx="855" cy="1015" r="3"/><circle cx="870" cy="1015" r="3"/><circle cx="885" cy="1015" r="3"/><circle cx="900" cy="1015" r="3"/>
        <circle cx="817.5" cy="998" r="3"/><circle cx="832.5" cy="998" r="3"/><circle cx="847.5" cy="998" r="3"/><circle cx="862.5" cy="998" r="3"/><circle cx="877.5" cy="998" r="3"/><circle cx="892.5" cy="998" r="3"/>
      </g>
      <g>
        <circle cx="555" cy="1010" r="22" fill="url(#btn-grad)" stroke="#1c5e1f" stroke-width="2"/>
        <g fill="#1c5e1f" transform="translate(555 1010)"><circle cx="0" cy="-6" r="4"/><circle cx="-6" cy="4" r="4"/><circle cx="6" cy="4" r="4"/></g>
        <circle cx="635" cy="1010" r="22" fill="url(#btn-grad)" stroke="#1c5e1f" stroke-width="2"/>
        <rect x="624" y="1003" width="22" height="14" rx="2" fill="#1c5e1f"/>
        <circle cx="715" cy="1010" r="22" fill="url(#btn-grad)" stroke="#1c5e1f" stroke-width="2"/>
        <path d="M 708 1000 L 724 1010 L 708 1020 Z" fill="#1c5e1f"/>
      </g>
    </g>
  </g>
</svg>
